<svg width="19" height="19" viewBox="0 0 19 19" fill="none" xmlns="http://www.w3.org/2000/svg">
<path d="M13.4582 1.58319C14.5071 1.58632 15.5122 2.0044 16.2539 2.7461C16.9956 3.48781 17.4137 4.49288 17.4168 5.54181V13.4582C17.4137 14.5071 16.9956 15.5122 16.2539 16.2539C15.5122 16.9956 14.5071 17.4137 13.4582 17.4168H5.54181C4.49288 17.4137 3.48781 16.9956 2.7461 16.2539C2.0044 15.5122 1.58632 14.5071 1.58319 13.4582V5.54181C1.58632 4.49288 2.0044 3.48781 2.7461 2.7461C3.48781 2.0044 4.49288 1.58632 5.54181 1.58319H13.4582V1.58319ZM13.4582 0H5.54181C2.49375 0 0 2.49375 0 5.54181V13.4582C0 16.5062 2.49375 19 5.54181 19H13.4582C16.5062 19 19 16.5062 19 13.4582V5.54181C19 2.49375 16.5062 0 13.4582 0V0Z" fill="black"/>
<path d="M14.8214 5.35717C14.5883 5.35717 14.3604 5.28805 14.1666 5.15855C13.9728 5.02904 13.8217 4.84497 13.7325 4.62961C13.6433 4.41425 13.62 4.17728 13.6655 3.94866C13.7109 3.72003 13.8232 3.51003 13.988 3.3452C14.1529 3.18037 14.3629 3.06812 14.5915 3.02265C14.8201 2.97717 15.0571 3.00051 15.2724 3.08972C15.4878 3.17892 15.6719 3.32998 15.8014 3.5238C15.9309 3.71762 16 3.94548 16 4.17859C16.0003 4.33345 15.9701 4.48686 15.911 4.63001C15.8518 4.77315 15.765 4.90321 15.6555 5.01272C15.546 5.12222 15.416 5.20902 15.2728 5.26814C15.1297 5.32725 14.9763 5.35751 14.8214 5.35717V5.35717ZM9.71435 6.14262C10.336 6.14262 10.9437 6.32695 11.4605 6.67231C11.9774 7.01767 12.3802 7.50855 12.6181 8.08286C12.856 8.65718 12.9183 9.28914 12.797 9.89883C12.6757 10.5085 12.3764 11.0686 11.9368 11.5081C11.4972 11.9477 10.9372 12.247 10.3275 12.3683C9.71783 12.4896 9.08587 12.4273 8.51156 12.1894C7.93724 11.9516 7.44637 11.5487 7.10101 11.0318C6.75565 10.515 6.57131 9.90729 6.57131 9.28565C6.5722 8.45234 6.90363 7.65342 7.49287 7.06417C8.08211 6.47493 8.88103 6.14351 9.71435 6.14262V6.14262ZM9.71435 4.57131C8.78194 4.57131 7.87047 4.8478 7.0952 5.36582C6.31993 5.88384 5.71568 6.62012 5.35886 7.48155C5.00204 8.34298 4.90868 9.29088 5.09059 10.2054C5.27249 11.1199 5.72149 11.9599 6.3808 12.6192C7.04011 13.2785 7.88013 13.7275 8.79462 13.9094C9.70912 14.0913 10.657 13.998 11.5184 13.6411C12.3799 13.2843 13.1162 12.6801 13.6342 11.9048C14.1522 11.1295 14.4287 10.2181 14.4287 9.28565C14.4287 8.03533 13.932 6.83622 13.0479 5.95211C12.1638 5.068 10.9647 4.57131 9.71435 4.57131V4.57131Z" fill="black"/>
</svg>
