<svg xmlns="http://www.w3.org/2000/svg" version="1.1" xmlns:xlink="http://www.w3.org/1999/xlink" xmlns:svgjs="http://svgjs.dev/svgjs" viewBox="0 0 800 800" opacity="0.15"><g stroke-width="0.5" stroke="#5c6c4fff" fill="none" stroke-linecap="round" transform="matrix(1,0,0,1,-5,-31.983823776245117)"><path d="M10,10C41.25,10.416666666666666,95.41666666666667,15.333333333333332,160,12C224.58333333333331,8.666666666666668,253.33333333333331,-6.833333333333333,320,-6C386.6666666666667,-5.166666666666667,413.3333333333333,15.166666666666666,480,16C546.6666666666666,16.833333333333332,573.3333333333334,-2.833333333333333,640,-2C706.6666666666666,-1.1666666666666667,766.6666666666666,15.416666666666668,800,20"></path><path d="M10,10C41.25,10.416666666666666,95.41666666666667,15.333333333333332,160,12C224.58333333333331,8.666666666666668,253.33333333333331,-6.833333333333333,320,-6C386.6666666666667,-5.166666666666667,413.3333333333333,15.166666666666666,480,16C546.6666666666666,16.833333333333332,573.3333333333334,-2.833333333333333,640,-2C706.6666666666666,-1.1666666666666667,766.6666666666666,15.416666666666668,800,20" transform="matrix(1,0,0,1,0,850)"></path><path d="M10,10C41.25,10.416666666666666,95.41666666666667,15.333333333333332,160,12C224.58333333333331,8.666666666666668,253.33333333333331,-6.833333333333333,320,-6C386.6666666666667,-5.166666666666667,413.3333333333333,15.166666666666666,480,16C546.6666666666666,16.833333333333332,573.3333333333334,-2.833333333333333,640,-2C706.6666666666666,-1.1666666666666667,766.6666666666666,15.416666666666668,800,20" transform="matrix(1,0,0,1,0,765)"></path><path d="M10,10C41.25,10.416666666666666,95.41666666666667,15.333333333333332,160,12C224.58333333333331,8.666666666666668,253.33333333333331,-6.833333333333333,320,-6C386.6666666666667,-5.166666666666667,413.3333333333333,15.166666666666666,480,16C546.6666666666666,16.833333333333332,573.3333333333334,-2.833333333333333,640,-2C706.6666666666666,-1.1666666666666667,766.6666666666666,15.416666666666668,800,20" transform="matrix(1,0,0,1,0,680)"></path><path d="M10,10C41.25,10.416666666666666,95.41666666666667,15.333333333333332,160,12C224.58333333333331,8.666666666666668,253.33333333333331,-6.833333333333333,320,-6C386.6666666666667,-5.166666666666667,413.3333333333333,15.166666666666666,480,16C546.6666666666666,16.833333333333332,573.3333333333334,-2.833333333333333,640,-2C706.6666666666666,-1.1666666666666667,766.6666666666666,15.416666666666668,800,20" transform="matrix(1,0,0,1,0,595)"></path><path d="M10,10C41.25,10.416666666666666,95.41666666666667,15.333333333333332,160,12C224.58333333333331,8.666666666666668,253.33333333333331,-6.833333333333333,320,-6C386.6666666666667,-5.166666666666667,413.3333333333333,15.166666666666666,480,16C546.6666666666666,16.833333333333332,573.3333333333334,-2.833333333333333,640,-2C706.6666666666666,-1.1666666666666667,766.6666666666666,15.416666666666668,800,20" transform="matrix(1,0,0,1,0,510)"></path><path d="M10,10C41.25,10.416666666666666,95.41666666666667,15.333333333333332,160,12C224.58333333333331,8.666666666666668,253.33333333333331,-6.833333333333333,320,-6C386.6666666666667,-5.166666666666667,413.3333333333333,15.166666666666666,480,16C546.6666666666666,16.833333333333332,573.3333333333334,-2.833333333333333,640,-2C706.6666666666666,-1.1666666666666667,766.6666666666666,15.416666666666668,800,20" transform="matrix(1,0,0,1,0,425)"></path><path d="M10,10C41.25,10.416666666666666,95.41666666666667,15.333333333333332,160,12C224.58333333333331,8.666666666666668,253.33333333333331,-6.833333333333333,320,-6C386.6666666666667,-5.166666666666667,413.3333333333333,15.166666666666666,480,16C546.6666666666666,16.833333333333332,573.3333333333334,-2.833333333333333,640,-2C706.6666666666666,-1.1666666666666667,766.6666666666666,15.416666666666668,800,20" transform="matrix(1,0,0,1,0,340)"></path><path d="M10,10C41.25,10.416666666666666,95.41666666666667,15.333333333333332,160,12C224.58333333333331,8.666666666666668,253.33333333333331,-6.833333333333333,320,-6C386.6666666666667,-5.166666666666667,413.3333333333333,15.166666666666666,480,16C546.6666666666666,16.833333333333332,573.3333333333334,-2.833333333333333,640,-2C706.6666666666666,-1.1666666666666667,766.6666666666666,15.416666666666668,800,20" transform="matrix(1,0,0,1,0,255)"></path><path d="M10,10C41.25,10.416666666666666,95.41666666666667,15.333333333333332,160,12C224.58333333333331,8.666666666666668,253.33333333333331,-6.833333333333333,320,-6C386.6666666666667,-5.166666666666667,413.3333333333333,15.166666666666666,480,16C546.6666666666666,16.833333333333332,573.3333333333334,-2.833333333333333,640,-2C706.6666666666666,-1.1666666666666667,766.6666666666666,15.416666666666668,800,20" transform="matrix(1,0,0,1,0,170)"></path><path d="M10,10C41.25,10.416666666666666,95.41666666666667,15.333333333333332,160,12C224.58333333333331,8.666666666666668,253.33333333333331,-6.833333333333333,320,-6C386.6666666666667,-5.166666666666667,413.3333333333333,15.166666666666666,480,16C546.6666666666666,16.833333333333332,573.3333333333334,-2.833333333333333,640,-2C706.6666666666666,-1.1666666666666667,766.6666666666666,15.416666666666668,800,20" transform="matrix(1,0,0,1,0,85)"></path></g></svg>